<mxfile host="app.diagrams.net" modified="2023-04-21T12:29:45.013Z" agent="Mozilla/5.0 (Windows NT 10.0; Win64; x64; rv:109.0) Gecko/20100101 Firefox/109.0" version="21.2.1" etag="I-rcbE2qgX982uPwjEiK" type="google">
  <diagram name="PÃ¡gina-1" id="Pjazp2TO0EVO31IzeXJ3">
    <mxGraphModel>
      <root>
        <mxCell id="0" />
        <mxCell id="1" parent="0" />
      </root>
    </mxGraphModel>
  </diagram>
</mxfile>
